<?xml version="1.0" encoding="UTF-8" standalone="no"?>
<svg
   xmlns:dc="http://purl.org/dc/elements/1.1/"
   xmlns:cc="http://creativecommons.org/ns#"
   xmlns:rdf="http://www.w3.org/1999/02/22-rdf-syntax-ns#"
   xmlns:svg="http://www.w3.org/2000/svg"
   xmlns="http://www.w3.org/2000/svg"
   xmlns:sodipodi="http://sodipodi.sourceforge.net/DTD/sodipodi-0.dtd"
   xmlns:inkscape="http://www.inkscape.org/namespaces/inkscape"
   width="1400"
   height="2045"
   id="svg2"
   version="1.1"
   inkscape:version="0.48.4 r9939"
   sodipodi:docname="FORTIS.svg">
  <metadata
     id="metadata91">
    <rdf:RDF>
      <cc:Work
         rdf:about="">
        <dc:format>image/svg+xml</dc:format>
        <dc:type
           rdf:resource="http://purl.org/dc/dcmitype/StillImage" />
        <dc:title />
      </cc:Work>
    </rdf:RDF>
  </metadata>
  <defs
     id="defs89" />
  <sodipodi:namedview
     pagecolor="#ffffff"
     bordercolor="#666666"
     borderopacity="1"
     objecttolerance="10"
     gridtolerance="10"
     guidetolerance="10"
     inkscape:pageopacity="0"
     inkscape:pageshadow="2"
     inkscape:window-width="1885"
     inkscape:window-height="1025"
     id="namedview87"
     showgrid="false"
     inkscape:zoom="0.51879691"
     inkscape:cx="628.60757"
     inkscape:cy="1528.922"
     inkscape:window-x="-2"
     inkscape:window-y="-3"
     inkscape:window-maximized="1"
     inkscape:current-layer="svg2" />
  <rect
     y="1293.7158"
     x="15.420291"
     height="81.496063"
     width="81.496063"
     style="fill:#a96673;fill-opacity:1"
     id="rect19" />
  <rect
     y="1382.2986"
     x="15.420291"
     height="81.496063"
     width="81.496063"
     style="fill:#a96673;fill-opacity:1"
     id="rect21" />
  <rect
     y="1470.8812"
     x="15.420291"
     height="81.496063"
     width="81.496063"
     style="fill:#a96673;fill-opacity:1"
     id="rect23" />
  <rect
     y="1559.4639"
     x="15.420291"
     height="81.496063"
     width="81.496063"
     style="fill:#a96673;fill-opacity:1"
     id="12" />
  <rect
     y="1648.0465"
     x="15.420291"
     height="81.496063"
     width="81.496063"
     style="fill:#a96673;fill-opacity:1"
     id="rect26" />
  <rect
     y="1736.6293"
     x="15.420291"
     height="81.496063"
     width="81.496063"
     style="fill:#a96673;fill-opacity:1"
     id="6" />
  <rect
     y="1825.2119"
     x="15.420291"
     height="81.496063"
     width="81.496063"
     style="fill:#a96673;fill-opacity:1"
     id="rect29" />
  <rect
     y="1913.7946"
     x="15.420291"
     height="81.496063"
     width="81.496063"
     style="fill:#a96673;fill-opacity:1"
     id="rect31" />
  <rect
     y="1293.7158"
     x="104.00298"
     height="81.496063"
     width="81.496063"
     style="fill:#a96673;fill-opacity:1"
     id="rect33" />
  <rect
     y="1382.2986"
     x="104.00298"
     height="81.496063"
     width="81.496063"
     style="fill:#a96673;fill-opacity:1"
     id="7" />
  <rect
     y="1470.8812"
     x="104.00298"
     height="81.496063"
     width="81.496063"
     style="fill:#a96673;fill-opacity:1"
     id="11" />
  <rect
     y="1559.4639"
     x="104.00298"
     height="81.496063"
     width="81.496063"
     style="fill:#a96673;fill-opacity:1"
     id="rect37" />
  <rect
     y="1648.0465"
     x="104.00298"
     height="81.496063"
     width="81.496063"
     style="fill:#a96673;fill-opacity:1"
     id="9" />
  <rect
     y="1736.6293"
     x="104.00298"
     height="81.496063"
     width="81.496063"
     style="fill:#a96673;fill-opacity:1"
     id="rect40" />
  <rect
     y="1825.2119"
     x="104.00298"
     height="81.496063"
     width="81.496063"
     style="fill:#a96673;fill-opacity:1"
     id="rect42" />
  <rect
     y="1293.7158"
     x="192.58565"
     height="81.496063"
     width="81.496063"
     style="fill:#a96673;fill-opacity:1"
     id="rect44" />
  <rect
     y="1382.2986"
     x="192.58565"
     height="81.496063"
     width="81.496063"
     style="fill:#a96673;fill-opacity:1"
     id="rect46" />
  <rect
     y="1470.8812"
     x="192.58565"
     height="81.496063"
     width="81.496063"
     style="fill:#a96673;fill-opacity:1"
     id="rect48" />
  <rect
     y="1559.4639"
     x="192.58565"
     height="81.496063"
     width="81.496063"
     style="fill:#a96673;fill-opacity:1"
     id="rect50" />
  <rect
     y="1648.0465"
     x="192.58565"
     height="81.496063"
     width="81.496063"
     style="fill:#a96673;fill-opacity:1"
     id="rect52" />
  <rect
     y="1736.6293"
     x="192.58565"
     height="81.496063"
     width="81.496063"
     style="fill:#a96673;fill-opacity:1"
     id="rect54" />
  <rect
     y="1293.7158"
     x="281.1683"
     height="81.496063"
     width="81.496063"
     style="fill:#a96673;fill-opacity:1"
     id="rect56" />
  <rect
     y="1382.2986"
     x="281.1683"
     height="81.496063"
     width="81.496063"
     style="fill:#a96673;fill-opacity:1"
     id="rect58" />
  <rect
     y="1470.8812"
     x="281.1683"
     height="81.496063"
     width="81.496063"
     style="fill:#a96673;fill-opacity:1"
     id="rect60" />
  <rect
     y="1559.4639"
     x="281.1683"
     height="81.496063"
     width="81.496063"
     style="fill:#a96673;fill-opacity:1"
     id="rect62" />
  <rect
     y="1648.0465"
     x="281.1683"
     height="81.496063"
     width="81.496063"
     style="fill:#a96673;fill-opacity:1"
     id="rect64" />
  <rect
     y="1293.7158"
     x="369.75101"
     height="81.496063"
     width="81.496063"
     style="fill:#a96673;fill-opacity:1"
     id="rect66" />
  <rect
     y="1382.2986"
     x="369.75101"
     height="81.496063"
     width="81.496063"
     style="fill:#a96673;fill-opacity:1"
     id="rect68" />
  <rect
     y="1470.8812"
     x="369.75101"
     height="81.496063"
     width="81.496063"
     style="fill:#a96673;fill-opacity:1"
     id="10" />
  <rect
     y="1559.4639"
     x="369.75101"
     height="81.496063"
     width="81.496063"
     style="fill:#a96673;fill-opacity:1"
     id="rect71" />
  <rect
     y="1293.7158"
     x="458.33368"
     height="81.496063"
     width="81.496063"
     style="fill:#a96673;fill-opacity:1"
     id="rect73" />
  <rect
     y="1382.2986"
     x="458.33368"
     height="81.496063"
     width="81.496063"
     style="fill:#a96673;fill-opacity:1"
     id="rect75" />
  <rect
     y="1470.8812"
     x="458.33368"
     height="81.496063"
     width="81.496063"
     style="fill:#a96673;fill-opacity:1"
     id="rect77" />
  <rect
     y="1293.7158"
     x="546.91632"
     height="81.496063"
     width="81.496063"
     style="fill:#a96673;fill-opacity:1"
     id="rect79" />
  <rect
     y="1382.2986"
     x="546.91632"
     height="81.496063"
     width="81.496063"
     style="fill:#a96673;fill-opacity:1"
     id="rect81" />
  <rect
     y="1293.7158"
     x="635.49902"
     height="81.496063"
     width="81.496063"
     style="fill:#a96673;fill-opacity:1"
     id="rect83" />
  <text
     sodipodi:linespacing="100%"
     id="text85"
     y="2028.9521"
     x="24.138489"
     style="font-size:35.43307114px;font-style:normal;font-weight:normal;line-height:100%;text-anchor:start;font-family:Arial">sph -9.00</text>
  <text
     sodipodi:linespacing="100%"
     id="text2998-1"
     y="112.38911"
     x="14.795784"
     style="font-size:35.43307114px;font-style:normal;font-weight:normal;line-height:100%;text-anchor:start;font-family:Arial">sph + 6.00</text>
  <text
     sodipodi:linespacing="100%"
     id="text6-7"
     y="112.38911"
     x="718.50336"
     style="font-size:35.43307114px;font-style:normal;font-weight:normal;text-align:end;line-height:100%;writing-mode:lr-tb;text-anchor:end;font-family:Arial">cyl -2</text>
  <rect
     y="130.54567"
     x="15.042813"
     height="81.496063"
     width="81.496063"
     style="fill:#6688c4;fill-opacity:1"
     id="5-4" />
  <rect
     y="130.54567"
     x="103.6255"
     height="81.496063"
     width="81.496063"
     style="fill:#6688c4;fill-opacity:1"
     id="15-0" />
  <rect
     y="130.54567"
     x="192.20815"
     height="81.496063"
     width="81.496063"
     style="fill:#6688c4;fill-opacity:1"
     id="rect10-9" />
  <rect
     y="130.54567"
     x="280.79077"
     height="81.496063"
     width="81.496063"
     style="fill:#6688c4;fill-opacity:1"
     id="8-4" />
  <rect
     y="130.54567"
     x="369.37347"
     height="81.496063"
     width="81.496063"
     style="fill:#6688c4;fill-opacity:1"
     id="rect13-8" />
  <rect
     y="130.54567"
     x="457.95618"
     height="81.496063"
     width="81.496063"
     style="fill:#6688c4;fill-opacity:1"
     id="rect15-8" />
  <rect
     y="130.54567"
     x="546.53882"
     height="81.496063"
     width="81.496063"
     style="fill:#6688c4;fill-opacity:1"
     id="13-2" />
  <rect
     y="130.54567"
     x="635.12146"
     height="81.496063"
     width="81.496063"
     style="fill:#6688c4;fill-opacity:1"
     id="14-4" />
  <rect
     y="1098.8312"
     x="15.042813"
     height="81.496063"
     width="81.496063"
     style="fill:#a96673;fill-opacity:1"
     id="rect19-5" />
  <rect
     y="1098.8312"
     x="103.62548"
     height="81.496063"
     width="81.496063"
     style="fill:#a96673;fill-opacity:1"
     id="rect33-5" />
  <rect
     y="1098.8312"
     x="192.20816"
     height="81.496063"
     width="81.496063"
     style="fill:#a96673;fill-opacity:1"
     id="rect44-1" />
  <rect
     y="1098.8312"
     x="280.79077"
     height="81.496063"
     width="81.496063"
     style="fill:#a96673;fill-opacity:1"
     id="rect56-7" />
  <rect
     y="1098.8312"
     x="369.37347"
     height="81.496063"
     width="81.496063"
     style="fill:#a96673;fill-opacity:1"
     id="rect66-1" />
  <rect
     y="1098.8312"
     x="457.95618"
     height="81.496063"
     width="81.496063"
     style="fill:#a96673;fill-opacity:1"
     id="rect73-1" />
  <rect
     y="1098.8312"
     x="546.53882"
     height="81.496063"
     width="81.496063"
     style="fill:#a96673;fill-opacity:1"
     id="rect79-5" />
  <rect
     y="1098.8312"
     x="635.12146"
     height="81.496063"
     width="81.496063"
     style="fill:#a96673;fill-opacity:1"
     id="rect83-2" />
  <rect
     y="1185.9889"
     x="14.917277"
     height="81.496063"
     width="81.496063"
     style="fill:#a96673;fill-opacity:1"
     id="rect19-5-7" />
  <rect
     y="1185.9889"
     x="103.49995"
     height="81.496063"
     width="81.496063"
     style="fill:#a96673;fill-opacity:1"
     id="rect33-5-6" />
  <rect
     y="1185.9889"
     x="192.08261"
     height="81.496063"
     width="81.496063"
     style="fill:#a96673;fill-opacity:1"
     id="rect44-1-1" />
  <rect
     y="1185.9889"
     x="280.66525"
     height="81.496063"
     width="81.496063"
     style="fill:#a96673;fill-opacity:1"
     id="rect56-7-4" />
  <rect
     y="1185.9889"
     x="369.24796"
     height="81.496063"
     width="81.496063"
     style="fill:#a96673;fill-opacity:1"
     id="rect66-1-2" />
  <rect
     y="1185.9889"
     x="457.83066"
     height="81.496063"
     width="81.496063"
     style="fill:#a96673;fill-opacity:1"
     id="rect73-1-3" />
  <rect
     y="1185.9889"
     x="546.41333"
     height="81.496063"
     width="81.496063"
     style="fill:#a96673;fill-opacity:1"
     id="rect79-5-2" />
  <rect
     y="1185.9889"
     x="634.99597"
     height="81.496063"
     width="81.496063"
     style="fill:#a96673;fill-opacity:1"
     id="rect83-2-2" />
  <text
     sodipodi:linespacing="100%"
     id="text85-1"
     y="1347.8027"
     x="24.000078"
     style="font-size:35.43307114px;font-style:normal;font-weight:normal;line-height:100%;text-anchor:start;font-family:Arial">sph -7.25</text>
  <text
     xml:space="preserve"
     style="font-size:40px;font-style:normal;font-weight:normal;line-height:125%;letter-spacing:0px;word-spacing:0px;fill:#000000;fill-opacity:1;stroke:none;font-family:Sans;-inkscape-font-specification:Sans"
     x="245.63834"
     y="1521.2281"
     id="text3241"
     sodipodi:linespacing="125%"><tspan
       sodipodi:role="line"
       id="tspan3243"
       x="245.63834"
       y="1521.2281">Diamètre 70</tspan></text>
  <text
     sodipodi:linespacing="100%"
     id="text85-1-6"
     y="1151.4453"
     x="24.000078"
     style="font-size:35.43307114px;font-style:normal;font-weight:normal;line-height:100%;text-anchor:start;font-family:Arial">sph -6.25</text>
  <text
     xml:space="preserve"
     style="font-size:40px;font-style:normal;font-weight:normal;line-height:125%;letter-spacing:0px;word-spacing:0px;fill:#000000;fill-opacity:1;stroke:none;font-family:Sans;-inkscape-font-specification:Sans"
     x="245.48209"
     y="1197.2721"
     id="text3241-8"
     sodipodi:linespacing="125%"><tspan
       sodipodi:role="line"
       id="tspan3243-5"
       x="245.48209"
       y="1197.2721">Diamètre 75</tspan></text>
  <rect
     y="905.06018"
     x="14.980088"
     height="81.496063"
     width="81.496063"
     style="fill:#a96673;fill-opacity:1"
     id="rect19-5-76" />
  <rect
     y="905.06018"
     x="103.56274"
     height="81.496063"
     width="81.496063"
     style="fill:#a96673;fill-opacity:1"
     id="rect33-5-1" />
  <rect
     y="905.06018"
     x="192.1454"
     height="81.496063"
     width="81.496063"
     style="fill:#a96673;fill-opacity:1"
     id="rect44-1-8" />
  <rect
     y="905.06018"
     x="280.72803"
     height="81.496063"
     width="81.496063"
     style="fill:#a96673;fill-opacity:1"
     id="rect56-7-9" />
  <rect
     y="905.06018"
     x="369.31073"
     height="81.496063"
     width="81.496063"
     style="fill:#a96673;fill-opacity:1"
     id="rect66-1-27" />
  <rect
     y="905.06018"
     x="457.89343"
     height="81.496063"
     width="81.496063"
     style="fill:#a96673;fill-opacity:1"
     id="rect73-1-9" />
  <rect
     y="905.06018"
     x="546.47601"
     height="81.496063"
     width="81.496063"
     style="fill:#a96673;fill-opacity:1"
     id="rect79-5-5" />
  <rect
     y="905.06018"
     x="635.05865"
     height="81.496063"
     width="81.496063"
     style="fill:#a96673;fill-opacity:1"
     id="rect83-2-4" />
  <rect
     y="992.21777"
     x="14.854539"
     height="81.496063"
     width="81.496063"
     style="fill:#a96673;fill-opacity:1"
     id="rect19-5-7-3" />
  <rect
     y="992.21777"
     x="103.43722"
     height="81.496063"
     width="81.496063"
     style="fill:#a96673;fill-opacity:1"
     id="rect33-5-6-1" />
  <rect
     y="992.21777"
     x="192.01985"
     height="81.496063"
     width="81.496063"
     style="fill:#a96673;fill-opacity:1"
     id="rect44-1-1-2" />
  <rect
     y="992.21777"
     x="280.60248"
     height="81.496063"
     width="81.496063"
     style="fill:#a96673;fill-opacity:1"
     id="rect56-7-4-3" />
  <rect
     y="992.21777"
     x="369.18518"
     height="81.496063"
     width="81.496063"
     style="fill:#a96673;fill-opacity:1"
     id="rect66-1-2-3" />
  <rect
     y="992.21777"
     x="457.76788"
     height="81.496063"
     width="81.496063"
     style="fill:#a96673;fill-opacity:1"
     id="rect73-1-3-4" />
  <rect
     y="992.21777"
     x="546.35052"
     height="81.496063"
     width="81.496063"
     style="fill:#a96673;fill-opacity:1"
     id="rect79-5-2-1" />
  <rect
     y="992.21777"
     x="634.93317"
     height="81.496063"
     width="81.496063"
     style="fill:#a96673;fill-opacity:1"
     id="rect83-2-2-1" />
  <rect
     y="218.32959"
     x="14.917258"
     height="81.496063"
     width="81.496063"
     style="fill:#6688c4;fill-opacity:1"
     id="5-4-4" />
  <rect
     y="218.32959"
     x="103.49997"
     height="81.496063"
     width="81.496063"
     style="fill:#6688c4;fill-opacity:1"
     id="15-0-2" />
  <rect
     y="218.32959"
     x="192.0826"
     height="81.496063"
     width="81.496063"
     style="fill:#6688c4;fill-opacity:1"
     id="rect10-9-7" />
  <rect
     y="218.32959"
     x="280.66522"
     height="81.496063"
     width="81.496063"
     style="fill:#6688c4;fill-opacity:1"
     id="8-4-7" />
  <rect
     y="218.32959"
     x="369.24792"
     height="81.496063"
     width="81.496063"
     style="fill:#6688c4;fill-opacity:1"
     id="rect13-8-9" />
  <rect
     y="218.32959"
     x="457.83063"
     height="81.496063"
     width="81.496063"
     style="fill:#6688c4;fill-opacity:1"
     id="rect15-8-3" />
  <rect
     y="218.32959"
     x="546.41333"
     height="81.496063"
     width="81.496063"
     style="fill:#6688c4;fill-opacity:1"
     id="13-2-1" />
  <rect
     y="218.32959"
     x="634.99597"
     height="81.496063"
     width="81.496063"
     style="fill:#6688c4;fill-opacity:1"
     id="14-4-9" />
  <text
     xml:space="preserve"
     style="font-size:40px;font-style:normal;font-weight:normal;line-height:125%;letter-spacing:0px;word-spacing:0px;fill:#000000;fill-opacity:1;stroke:none;font-family:Sans;-inkscape-font-specification:Sans"
     x="245.48209"
     y="227.42041"
     id="text3241-8-8-8"
     sodipodi:linespacing="125%"><tspan
       sodipodi:role="line"
       id="tspan3243-5-7-6"
       x="245.48209"
       y="227.42041">Diamètre 65</tspan></text>
  <flowRoot
     transform="translate(-0.7696867,-29.637745)"
     style="font-size:40px;font-style:normal;font-weight:normal;line-height:125%;letter-spacing:0px;word-spacing:0px;fill:#000000;fill-opacity:1;stroke:none;font-family:Sans;-inkscape-font-specification:Sans"
     id="flowRoot3482"
     xml:space="preserve"><flowRegion
       id="flowRegion3484"><rect
         y="34.840328"
         x="12.528988"
         height="58.789864"
         width="658.25372"
         id="rect3486" /></flowRegion><flowPara
       id="flowPara3488" /></flowRoot>  <g
     id="g4281"
     transform="translate(0,-71)">
    <path
       inkscape:connector-curvature="0"
       style="fill:#000000;fill-opacity:1;fill-rule:nonzero;stroke:none"
       d="m 868.24121,338.73759 3.08268,-0.49607 c 0.17716,1.24016 0.67322,2.19685 1.45275,2.83465 0.77953,0.67323 1.87795,0.99212 3.29528,0.99212 1.45275,0 2.51575,-0.28346 3.18897,-0.85039 0.70867,-0.60236 1.063,-1.27559 1.063,-2.05512 0,-0.70866 -0.3189,-1.27559 -0.92126,-1.66535 -0.4252,-0.28347 -1.48819,-0.6378 -3.18898,-1.06299 -2.30315,-0.56693 -3.8622,-1.063 -4.74803,-1.48819 -0.88583,-0.4252 -1.55906,-1.02756 -2.01969,-1.77166 -0.46063,-0.74409 -0.67322,-1.55905 -0.67322,-2.44488 0,-0.81496 0.17716,-1.59449 0.56692,-2.26772 0.35433,-0.70866 0.88583,-1.27559 1.52363,-1.73622 0.49606,-0.38976 1.13385,-0.67322 1.98425,-0.92126 0.81496,-0.24803 1.73622,-0.38975 2.69291,-0.38975 1.41732,0 2.69292,0.21259 3.79134,0.63779 1.09843,0.42519 1.87795,0.99212 2.40945,1.70078 0.5315,0.70866 0.88583,1.62992 1.06299,2.83465 l -3.04724,0.4252 c -0.14174,-0.9567 -0.5315,-1.70079 -1.20473,-2.23229 -0.63779,-0.53149 -1.59449,-0.77953 -2.79921,-0.77953 -1.41732,0 -2.44488,0.2126 -3.04724,0.70867 -0.6378,0.46063 -0.92126,1.02756 -0.92126,1.66535 0,0.38976 0.1063,0.7441 0.38976,1.06299 0.24803,0.35433 0.6378,0.6378 1.16929,0.8504 0.3189,0.1063 1.24016,0.38976 2.76378,0.77952 2.19685,0.60237 3.72047,1.063 4.6063,1.45276 0.88583,0.38976 1.55906,0.92126 2.05512,1.62992 0.49606,0.70866 0.74409,1.59449 0.74409,2.65748 0,1.06299 -0.31889,2.01969 -0.92126,2.94095 -0.60236,0.92126 -1.48819,1.62992 -2.62204,2.12598 -1.13386,0.49606 -2.40945,0.7441 -3.86221,0.7441 -2.37401,0 -4.21653,-0.49607 -5.45669,-1.48819 -1.24016,-0.99213 -2.05512,-2.44489 -2.40945,-4.3937 z"
       id="path3496" />
    <path
       inkscape:connector-curvature="0"
       style="fill:#000000;fill-opacity:1;fill-rule:nonzero;stroke:none"
       d="m 887.1979,351.24546 0,-25.40551 2.83465,0 0,2.40945 c 0.67323,-0.9567 1.45275,-1.66536 2.26771,-2.12599 0.8504,-0.46063 1.87796,-0.70865 3.08268,-0.70865 1.55906,0 2.94095,0.42519 4.14567,1.24015 1.20473,0.77953 2.09055,1.94882 2.72835,3.40157 0.60236,1.48819 0.92126,3.08268 0.92126,4.85433 0,1.87796 -0.35433,3.54331 -1.02756,5.06693 -0.67323,1.48819 -1.66536,2.65748 -2.94095,3.43701 -1.27559,0.81496 -2.62204,1.20473 -4.0748,1.20473 -1.02756,0 -1.94882,-0.2126 -2.76378,-0.6378 -0.85039,-0.4252 -1.52362,-0.99213 -2.05512,-1.66535 l 0,8.92913 z m 2.83465,-16.12205 c 0,2.37402 0.46063,4.11024 1.41732,5.2441 0.95669,1.13385 2.12598,1.70078 3.50787,1.70078 1.38189,0 2.55119,-0.56693 3.54331,-1.73622 0.99213,-1.16929 1.48819,-3.01181 1.48819,-5.45669 0,-2.33858 -0.49606,-4.11024 -1.45276,-5.24409 -0.95669,-1.1693 -2.12598,-1.77166 -3.437,-1.77166 -1.34646,0 -2.51575,0.6378 -3.54331,1.87796 -1.02756,1.24015 -1.52362,3.04724 -1.52362,5.38582 z"
       id="path3498" />
    <path
       inkscape:connector-curvature="0"
       style="fill:#000000;fill-opacity:1;fill-rule:nonzero;stroke:none"
       d="m 906.93412,344.22971 0,-25.37007 3.11811,0 0,9.10629 c 1.45276,-1.70078 3.29528,-2.55117 5.49213,-2.55117 1.38189,0 2.55118,0.28346 3.54331,0.81495 1.02756,0.5315 1.73622,1.27559 2.16141,2.23228 0.4252,0.9567 0.6378,2.30315 0.6378,4.11024 l 0,11.65748 -3.11811,0 0,-11.65748 c 0,-1.55905 -0.3189,-2.69291 -0.99213,-3.40157 -0.67323,-0.70867 -1.62992,-1.063 -2.87008,-1.063 -0.92126,0 -1.77165,0.24804 -2.58661,0.70867 -0.81496,0.49606 -1.41732,1.13385 -1.73622,1.94881 -0.35433,0.81497 -0.5315,1.94882 -0.5315,3.40158 l 0,10.06299 z"
       id="path3500" />
    <path
       inkscape:connector-curvature="0"
       style="fill:#000000;fill-opacity:1;fill-rule:nonzero;stroke:none"
       d="m 943.04042,340.11948 0,-6.94489 -6.90945,0 0,-2.90551 6.90945,0 0,-6.90945 2.94095,0 0,6.90945 6.87401,0 0,2.90551 -6.87401,0 0,6.94489 z"
       id="path3502" />
    <path
       inkscape:connector-curvature="0"
       style="fill:#000000;fill-opacity:1;fill-rule:nonzero;stroke:none"
       d="m 972.6625,341.2179 0,3.01181 -16.75987,0 c 0,-0.74409 0.1063,-1.48819 0.38976,-2.16142 0.4252,-1.16929 1.09843,-2.26771 2.01969,-3.40157 0.95668,-1.09843 2.30312,-2.37402 4.07482,-3.82677 2.7638,-2.26772 4.6417,-4.03937 5.5984,-5.38583 0.9567,-1.31102 1.4528,-2.55118 1.4528,-3.72047 0,-1.24016 -0.4252,-2.26772 -1.3111,-3.11811 -0.8858,-0.85039 -2.0551,-1.27559 -3.4724,-1.27559 -1.4882,0 -2.6929,0.42519 -3.5787,1.34645 -0.9213,0.88583 -1.34651,2.12599 -1.38194,3.72048 l -3.18897,-0.3189 c 0.2126,-2.37402 1.02756,-4.21654 2.48031,-5.45669 1.4173,-1.24016 3.3307,-1.87795 5.7402,-1.87795 2.4448,0 4.3582,0.67323 5.7755,2.01968 1.4174,1.34646 2.126,3.01181 2.126,5.03149 0,0.99213 -0.1771,1.98426 -0.6023,2.97638 -0.4252,0.99213 -1.0985,2.01969 -2.0552,3.11811 -0.9921,1.06299 -2.5866,2.55118 -4.8189,4.46457 -1.8779,1.55905 -3.0826,2.62205 -3.5787,3.18898 -0.5315,0.53149 -0.9921,1.09842 -1.3464,1.66535 z"
       id="path3504" />
    <path
       inkscape:connector-curvature="0"
       style="fill:#000000;fill-opacity:1;fill-rule:nonzero;stroke:none"
       d="m 977.8003,344.22971 0,-3.54331 3.5433,0 0,3.54331 z"
       id="path3506" />
    <path
       inkscape:connector-curvature="0"
       style="fill:#000000;fill-opacity:1;fill-rule:nonzero;stroke:none"
       d="m 985.879,337.56829 3.2598,-0.28346 c 0.2481,1.59449 0.815,2.79921 1.6654,3.61417 0.8858,0.77953 1.9488,1.20473 3.2244,1.20473 1.4882,0 2.7638,-0.56693 3.7914,-1.70079 1.0275,-1.13386 1.559,-2.62205 1.559,-4.5 0,-1.77165 -0.4961,-3.18898 -1.4882,-4.21654 -1.0276,-1.02755 -2.3031,-1.52362 -3.9331,-1.52362 -0.9921,0 -1.9134,0.2126 -2.7283,0.67323 -0.7795,0.46063 -1.4173,1.06299 -1.878,1.77165 l -2.9409,-0.38976 2.4803,-13.00393 12.5788,0 0,2.97637 -10.0985,0 -1.3819,6.80315 c 1.5237,-1.06299 3.1181,-1.59449 4.7835,-1.59449 2.2323,0 4.1102,0.77953 5.6339,2.30315 1.5236,1.52362 2.2677,3.50788 2.2677,5.91733 0,2.30314 -0.6732,4.2874 -1.9843,5.95275 -1.6299,2.05512 -3.8622,3.08268 -6.6614,3.08268 -2.3386,0 -4.2165,-0.6378 -5.6693,-1.94882 -1.4527,-1.27559 -2.3031,-3.01181 -2.4803,-5.1378 z"
       id="path3508" />
    <path
       inkscape:connector-curvature="0"
       style="fill:#000000;fill-opacity:1;fill-rule:nonzero;stroke:none"
       d="m 1005.5798,331.72184 c 0,-3.01181 0.3189,-5.42126 0.9212,-7.26378 0.6378,-1.80708 1.5591,-3.22441 2.7638,-4.21653 1.2047,-0.99213 2.7284,-1.48819 4.6063,-1.48819 1.3465,0 2.5512,0.28346 3.5788,0.81496 1.0275,0.56693 1.8779,1.34646 2.5157,2.37401 0.6732,1.02756 1.2047,2.30315 1.5945,3.75591 0.3898,1.48818 0.5669,3.50787 0.5669,6.02362 0,2.97638 -0.3189,5.35039 -0.9212,7.19291 -0.6024,1.84252 -1.5237,3.25984 -2.7284,4.25197 -1.2401,0.99213 -2.7638,1.48819 -4.6063,1.48819 -2.4449,0 -4.3937,-0.88583 -5.7756,-2.62205 -1.6653,-2.12598 -2.5157,-5.56299 -2.5157,-10.31102 z m 3.2244,0 c 0,4.14567 0.4606,6.90945 1.4527,8.29134 0.9567,1.38189 2.1615,2.09055 3.6142,2.09055 1.4173,0 2.6221,-0.70866 3.5788,-2.09055 0.9921,-1.38189 1.4882,-4.14567 1.4882,-8.29134 0,-4.1811 -0.4961,-6.94487 -1.4882,-8.32676 -0.9567,-1.38189 -2.1615,-2.05513 -3.6142,-2.05513 -1.4528,0 -2.5866,0.60236 -3.437,1.80709 -1.063,1.55905 -1.5945,4.3937 -1.5945,8.5748 z"
       id="path3510" />
  </g>
  <g
     id="g4271"
     transform="translate(-2.5511,-71)">
    <path
       inkscape:connector-curvature="0"
       style="fill:#000000;fill-opacity:1;fill-rule:nonzero;stroke:none"
       d="m 1267.5011,337.49743 3.0472,0.38976 c -0.3189,2.12599 -1.1693,3.75591 -2.5512,4.96063 -1.3819,1.20473 -3.0827,1.77166 -5.0669,1.77166 -2.5158,0 -4.5355,-0.81497 -6.0591,-2.44489 -1.559,-1.66535 -2.3031,-4.00393 -2.3031,-7.08661 0,-1.98425 0.3189,-3.72047 0.9921,-5.20866 0.6378,-1.48819 1.6299,-2.58662 2.9764,-3.33071 1.3464,-0.7441 2.8346,-1.13386 4.3937,-1.13386 1.9842,0 3.6496,0.5315 4.8898,1.52362 1.2755,1.02756 2.0905,2.44488 2.4448,4.32284 l -3.0118,0.46063 c -0.2834,-1.24016 -0.8149,-2.16142 -1.5236,-2.79922 -0.7441,-0.63779 -1.6299,-0.92126 -2.6575,-0.92126 -1.5945,0 -2.8701,0.56693 -3.8268,1.66536 -0.9921,1.13386 -1.4881,2.90551 -1.4881,5.35039 0,2.48032 0.4606,4.25197 1.4173,5.38583 0.9567,1.09842 2.1968,1.66535 3.7204,1.66535 1.2048,0 2.2323,-0.35433 3.0473,-1.13385 0.815,-0.7441 1.3465,-1.87796 1.5591,-3.43701 z"
       id="path3512" />
    <path
       inkscape:connector-curvature="0"
       style="fill:#000000;fill-opacity:1;fill-rule:nonzero;stroke:none"
       d="m 1273.0995,351.28089 -0.3544,-2.90551 c 0.6733,0.17717 1.2756,0.28347 1.7717,0.28347 0.7087,0 1.2402,-0.14174 1.6653,-0.35434 0.4253,-0.24803 0.7442,-0.56692 1.0276,-0.95669 0.2126,-0.3189 0.4961,-1.09842 0.9567,-2.33858 0.035,-0.17717 0.1417,-0.4252 0.2835,-0.7441 l -6.9803,-18.42519 3.3661,0 3.7913,10.62992 c 0.4961,1.38189 0.9567,2.79921 1.3465,4.2874 0.3543,-1.45276 0.7795,-2.83465 1.2756,-4.21654 l 3.933,-10.70077 3.1182,0 -6.9804,18.70865 c -0.744,1.98425 -1.3464,3.40157 -1.7716,4.14567 -0.5315,1.02756 -1.1693,1.77165 -1.878,2.26771 -0.744,0.46063 -1.5944,0.70867 -2.5866,0.70867 -0.6023,0 -1.2401,-0.1063 -1.9842,-0.38977 z"
       id="path3514" />
    <path
       inkscape:connector-curvature="0"
       style="fill:#000000;fill-opacity:1;fill-rule:nonzero;stroke:none"
       d="m 1290.8869,344.22971 0,-25.37007 3.1181,0 0,25.37007 z"
       id="path3516" />
    <path
       inkscape:connector-curvature="0"
       style="fill:#000000;fill-opacity:1;fill-rule:nonzero;stroke:none"
       d="m 1307.4341,336.6116 0,-3.15354 9.6024,0 0,3.15354 z"
       id="path3518" />
    <path
       inkscape:connector-curvature="0"
       style="fill:#000000;fill-opacity:1;fill-rule:nonzero;stroke:none"
       d="m 1331.3514,344.22971 -3.1181,0 0,-19.84251 c -0.7441,0.70865 -1.7362,1.41731 -2.9409,2.12598 -1.2047,0.70866 -2.3032,1.27559 -3.2598,1.62992 l 0,-3.0118 c 1.7362,-0.81497 3.2598,-1.8071 4.5708,-2.97638 1.2756,-1.1693 2.1969,-2.30316 2.7638,-3.40158 l 1.9842,0 z"
       id="path3520" />
    <path
       inkscape:connector-curvature="0"
       style="fill:#000000;fill-opacity:1;fill-rule:nonzero;stroke:none"
       d="m 1341.0955,344.22971 0,-3.54331 3.5433,0 0,3.54331 z"
       id="path3522" />
    <path
       inkscape:connector-curvature="0"
       style="fill:#000000;fill-opacity:1;fill-rule:nonzero;stroke:none"
       d="m 1349.1743,337.56829 3.2953,-0.28346 c 0.2125,1.59449 0.7795,2.79921 1.6653,3.61417 0.8858,0.77953 1.9488,1.20473 3.189,1.20473 1.5236,0 2.7638,-0.56693 3.8268,-1.70079 1.0275,-1.13386 1.559,-2.62205 1.559,-4.5 0,-1.77165 -0.5315,-3.18898 -1.5236,-4.21654 -0.9921,-1.02755 -2.3032,-1.52362 -3.8977,-1.52362 -1.0275,0 -1.9133,0.2126 -2.7283,0.67323 -0.815,0.46063 -1.4528,1.06299 -1.9134,1.77165 l -2.9055,-0.38976 2.4449,-13.00393 12.6142,0 0,2.97637 -10.1339,0 -1.3465,6.80315 c 1.5237,-1.06299 3.1182,-1.59449 4.7835,-1.59449 2.2323,0 4.0748,0.77953 5.5984,2.30315 1.5237,1.52362 2.3032,3.50788 2.3032,5.91733 0,2.30314 -0.6732,4.2874 -2.0197,5.95275 -1.6299,2.05512 -3.8268,3.08268 -6.6614,3.08268 -2.3032,0 -4.1811,-0.6378 -5.6339,-1.94882 -1.4527,-1.27559 -2.3031,-3.01181 -2.5157,-5.1378 z"
       id="path3524" />
    <path
       inkscape:connector-curvature="0"
       style="fill:#000000;fill-opacity:1;fill-rule:nonzero;stroke:none"
       d="m 1368.9105,331.72184 c 0,-3.01181 0.3189,-5.42126 0.9213,-7.26378 0.6023,-1.80708 1.5236,-3.22441 2.7637,-4.21653 1.2048,-0.99213 2.7284,-1.48819 4.5709,-1.48819 1.3819,0 2.5512,0.28346 3.5787,0.81496 1.0276,0.56693 1.878,1.34646 2.5512,2.37401 0.6733,1.02756 1.2048,2.30315 1.5945,3.75591 0.3543,1.48818 0.5669,3.50787 0.5669,6.02362 0,2.97638 -0.3189,5.35039 -0.9212,7.19291 -0.6024,1.84252 -1.5236,3.25984 -2.7638,4.25197 -1.2047,0.99213 -2.7283,1.48819 -4.6063,1.48819 -2.4449,0 -4.3583,-0.88583 -5.7401,-2.62205 -1.7008,-2.12598 -2.5158,-5.56299 -2.5158,-10.31102 z m 3.189,0 c 0,4.14567 0.496,6.90945 1.4527,8.29134 0.9922,1.38189 2.1969,2.09055 3.6142,2.09055 1.4528,0 2.6575,-0.70866 3.6142,-2.09055 0.9921,-1.38189 1.4527,-4.14567 1.4527,-8.29134 0,-4.1811 -0.4606,-6.94487 -1.4527,-8.32676 -0.9567,-1.38189 -2.1969,-2.05513 -3.6496,-2.05513 -1.4174,0 -2.5512,0.60236 -3.4016,1.80709 -1.0984,1.55905 -1.6299,4.3937 -1.6299,8.5748 z"
       id="path3526" />
  </g>
  <path
     id="path3528"
     d="m 858.49711,388.96594 81.49607,0 0,81.49606 -81.49607,0 z"
     style="fill:#a96673;fill-opacity:1;fill-rule:nonzero;stroke:none"
     inkscape:connector-curvature="0" />
  <path
     id="path3530"
     d="m 858.49711,477.54862 81.49607,0 0,81.49606 -81.49607,0 z"
     style="fill:#a96673;fill-opacity:1;fill-rule:nonzero;stroke:none"
     inkscape:connector-curvature="0" />
  <path
     id="path3532"
     d="m 858.49711,566.13129 81.49607,0 0,81.49607 -81.49607,0 z"
     style="fill:#a96673;fill-opacity:1;fill-rule:nonzero;stroke:none"
     inkscape:connector-curvature="0" />
  <path
     id="path3534"
     d="m 858.49711,654.71397 81.49607,0 0,81.49606 -81.49607,0 z"
     style="fill:#a96673;fill-opacity:1;fill-rule:nonzero;stroke:none"
     inkscape:connector-curvature="0" />
  <path
     id="path3536"
     d="m 858.49711,743.29665 81.49607,0 0,81.49606 -81.49607,0 z"
     style="fill:#a96673;fill-opacity:1;fill-rule:nonzero;stroke:none"
     inkscape:connector-curvature="0" />
  <path
     id="path3538"
     d="m 858.49711,831.87932 81.49607,0 0,81.49608 -81.49607,0 z"
     style="fill:#a96673;fill-opacity:1;fill-rule:nonzero;stroke:none"
     inkscape:connector-curvature="0" />
  <path
     id="path3540"
     d="m 947.07979,388.96594 81.49601,0 0,81.49606 -81.49601,0 z"
     style="fill:#a96673;fill-opacity:1;fill-rule:nonzero;stroke:none"
     inkscape:connector-curvature="0" />
  <path
     id="path3542"
     d="m 947.07979,477.54862 81.49601,0 0,81.49606 -81.49601,0 z"
     style="fill:#a96673;fill-opacity:1;fill-rule:nonzero;stroke:none"
     inkscape:connector-curvature="0" />
  <path
     id="path3544"
     d="m 947.07979,566.13129 81.49601,0 0,81.49607 -81.49601,0 z"
     style="fill:#a96673;fill-opacity:1;fill-rule:nonzero;stroke:none"
     inkscape:connector-curvature="0" />
  <path
     id="path3546"
     d="m 947.07979,654.71397 81.49601,0 0,81.49606 -81.49601,0 z"
     style="fill:#a96673;fill-opacity:1;fill-rule:nonzero;stroke:none"
     inkscape:connector-curvature="0" />
  <path
     id="path3548"
     d="m 947.07979,743.29665 81.49601,0 0,81.49606 -81.49601,0 z"
     style="fill:#a96673;fill-opacity:1;fill-rule:nonzero;stroke:none"
     inkscape:connector-curvature="0" />
  <path
     id="path3550"
     d="m 1035.6625,388.96594 81.496,0 0,81.49606 -81.496,0 z"
     style="fill:#a96673;fill-opacity:1;fill-rule:nonzero;stroke:none"
     inkscape:connector-curvature="0" />
  <path
     id="path3552"
     d="m 1035.6625,477.54862 81.496,0 0,81.49606 -81.496,0 z"
     style="fill:#a96673;fill-opacity:1;fill-rule:nonzero;stroke:none"
     inkscape:connector-curvature="0" />
  <path
     id="path3554"
     d="m 1035.6625,566.13129 81.496,0 0,81.49607 -81.496,0 z"
     style="fill:#a96673;fill-opacity:1;fill-rule:nonzero;stroke:none"
     inkscape:connector-curvature="0" />
  <path
     id="path3556"
     d="m 1035.6625,654.71397 81.496,0 0,81.49606 -81.496,0 z"
     style="fill:#a96673;fill-opacity:1;fill-rule:nonzero;stroke:none"
     inkscape:connector-curvature="0" />
  <path
     id="path3558"
     d="m 1124.2451,388.96594 81.4961,0 0,81.49606 -81.4961,0 z"
     style="fill:#a96673;fill-opacity:1;fill-rule:nonzero;stroke:none"
     inkscape:connector-curvature="0" />
  <path
     id="path3560"
     d="m 1124.2451,477.54862 81.4961,0 0,81.49606 -81.4961,0 z"
     style="fill:#a96673;fill-opacity:1;fill-rule:nonzero;stroke:none"
     inkscape:connector-curvature="0" />
  <path
     id="path3562"
     d="m 1124.2451,566.13129 81.4961,0 0,81.49607 -81.4961,0 z"
     style="fill:#a96673;fill-opacity:1;fill-rule:nonzero;stroke:none"
     inkscape:connector-curvature="0" />
  <path
     id="path3564"
     d="m 1212.8278,388.96594 81.4961,0 0,81.49606 -81.4961,0 z"
     style="fill:#a96673;fill-opacity:1;fill-rule:nonzero;stroke:none"
     inkscape:connector-curvature="0" />
  <path
     id="path3566"
     d="m 1212.8278,477.54862 81.4961,0 0,81.49606 -81.4961,0 z"
     style="fill:#a96673;fill-opacity:1;fill-rule:nonzero;stroke:none"
     inkscape:connector-curvature="0" />
  <path
     id="path3568"
     d="m 1301.4105,388.96594 81.4961,0 0,81.49606 -81.4961,0 z"
     style="fill:#a96673;fill-opacity:1;fill-rule:nonzero;stroke:none"
     inkscape:connector-curvature="0" />
  <path
     id="path3570"
     d="m 858.49711,303.2179 81.49607,0 0,81.49607 -81.49607,0 z"
     style="fill:#6688c4;fill-opacity:1;fill-rule:nonzero;stroke:none"
     inkscape:connector-curvature="0" />
  <path
     id="path3572"
     d="m 947.07979,303.2179 81.49601,0 0,81.49607 -81.49601,0 z"
     style="fill:#6688c4;fill-opacity:1;fill-rule:nonzero;stroke:none"
     inkscape:connector-curvature="0" />
  <path
     id="path3574"
     d="m 1035.6625,303.2179 81.496,0 0,81.49607 -81.496,0 z"
     style="fill:#6688c4;fill-opacity:1;fill-rule:nonzero;stroke:none"
     inkscape:connector-curvature="0" />
  <path
     id="path3576"
     d="m 1124.2451,303.2179 81.4961,0 0,81.49607 -81.4961,0 z"
     style="fill:#6688c4;fill-opacity:1;fill-rule:nonzero;stroke:none"
     inkscape:connector-curvature="0" />
  <path
     id="path3578"
     d="m 1212.8278,303.2179 81.4961,0 0,81.49607 -81.4961,0 z"
     style="fill:#6688c4;fill-opacity:1;fill-rule:nonzero;stroke:none"
     inkscape:connector-curvature="0" />
  <path
     id="path3580"
     d="m 1301.4105,303.2179 81.4961,0 0,81.49607 -81.4961,0 z"
     style="fill:#6688c4;fill-opacity:1;fill-rule:nonzero;stroke:none"
     inkscape:connector-curvature="0" />
  <path
     id="path3582"
     d="m 868.24121,955.7179 3.08268,-0.4606 c 0.17716,1.2401 0.67322,2.1614 1.45275,2.8346 0.77953,0.6378 1.87795,0.9921 3.29528,0.9921 1.45275,0 2.51575,-0.2834 3.18897,-0.8858 0.70867,-0.5669 1.063,-1.2756 1.063,-2.0551 0,-0.7087 -0.3189,-1.2402 -0.92126,-1.6653 -0.4252,-0.2481 -1.48819,-0.6024 -3.18898,-1.0276 -2.30315,-0.6024 -3.8622,-1.0984 -4.74803,-1.5236 -0.88583,-0.4252 -1.55906,-0.9922 -2.01969,-1.7363 -0.46063,-0.7441 -0.67322,-1.559 -0.67322,-2.4803 0,-0.8149 0.17716,-1.559 0.56692,-2.2677 0.35433,-0.6732 0.88583,-1.2756 1.52363,-1.7362 0.49606,-0.3543 1.13385,-0.6732 1.98425,-0.9213 0.81496,-0.248 1.73622,-0.3543 2.69291,-0.3543 1.41732,0 2.69292,0.2126 3.79134,0.6378 1.09843,0.3898 1.87795,0.9567 2.40945,1.6653 0.5315,0.7087 0.88583,1.6654 1.06299,2.8701 l -3.04724,0.3898 c -0.14174,-0.9213 -0.5315,-1.6654 -1.20473,-2.1969 -0.63779,-0.5315 -1.59449,-0.8149 -2.79921,-0.8149 -1.41732,0 -2.44488,0.248 -3.04724,0.7086 -0.6378,0.4961 -0.92126,1.0276 -0.92126,1.6654 0,0.4252 0.1063,0.7795 0.38976,1.0984 0.24803,0.3189 0.6378,0.6024 1.16929,0.815 0.3189,0.1417 1.24016,0.3897 2.76378,0.8149 2.19685,0.567 3.72047,1.063 4.6063,1.4528 0.88583,0.3543 1.55906,0.9213 2.05512,1.6299 0.49606,0.7087 0.74409,1.5945 0.74409,2.6575 0,1.0276 -0.31889,2.0197 -0.92126,2.9409 -0.60236,0.9213 -1.48819,1.63 -2.62204,2.126 -1.13386,0.4961 -2.40945,0.7441 -3.86221,0.7441 -2.37401,0 -4.21653,-0.496 -5.45669,-1.4882 -1.24016,-0.9921 -2.05512,-2.4803 -2.40945,-4.4291 z"
     style="fill:#000000;fill-opacity:1;fill-rule:nonzero;stroke:none"
     inkscape:connector-curvature="0" />
  <path
     id="path3584"
     d="m 887.1979,968.2612 0,-25.4055 2.83465,0 0,2.374 c 0.67323,-0.9212 1.45275,-1.6299 2.26771,-2.0905 0.8504,-0.4607 1.87796,-0.7087 3.08268,-0.7087 1.55906,0 2.94095,0.3898 4.14567,1.2047 1.20473,0.815 2.09055,1.9489 2.72835,3.437 0.60236,1.4528 0.92126,3.0827 0.92126,4.8189 0,1.878 -0.35433,3.5788 -1.02756,5.067 -0.67323,1.5236 -1.66536,2.6574 -2.94095,3.4724 -1.27559,0.815 -2.62204,1.2047 -4.0748,1.2047 -1.02756,0 -1.94882,-0.2126 -2.76378,-0.6732 -0.85039,-0.4252 -1.52362,-0.9921 -2.05512,-1.6299 l 0,8.9291 z m 2.83465,-16.122 c 0,2.374 0.46063,4.1102 1.41732,5.2441 0.95669,1.1338 2.12598,1.7008 3.50787,1.7008 1.38189,0 2.55119,-0.6024 3.54331,-1.7717 0.99213,-1.1693 1.48819,-2.9764 1.48819,-5.4213 0,-2.3386 -0.49606,-4.1102 -1.45276,-5.2795 -0.95669,-1.1693 -2.12598,-1.7362 -3.437,-1.7362 -1.34646,0 -2.51575,0.6024 -3.54331,1.8425 -1.02756,1.2402 -1.52362,3.0473 -1.52362,5.4213 z"
     style="fill:#000000;fill-opacity:1;fill-rule:nonzero;stroke:none"
     inkscape:connector-curvature="0" />
  <path
     id="path3586"
     d="m 906.93412,961.21 0,-25.37 3.11811,0 0,9.1063 c 1.45276,-1.6654 3.29528,-2.5158 5.49213,-2.5158 1.38189,0 2.55118,0.2835 3.54331,0.815 1.02756,0.5315 1.73622,1.2756 2.16141,2.1968 0.4252,0.9567 0.6378,2.3386 0.6378,4.1457 l 0,11.622 -3.11811,0 0,-11.622 c 0,-1.5591 -0.3189,-2.6929 -0.99213,-3.4016 -0.67323,-0.7086 -1.62992,-1.063 -2.87008,-1.063 -0.92126,0 -1.77165,0.2126 -2.58661,0.7087 -0.81496,0.4606 -1.41732,1.1338 -1.73622,1.9488 -0.35433,0.815 -0.5315,1.9488 -0.5315,3.4016 l 0,10.0275 z"
     style="fill:#000000;fill-opacity:1;fill-rule:nonzero;stroke:none"
     inkscape:connector-curvature="0" />
  <path
     id="path3588"
     d="m 868.24121,953.5919 0,-3.1181 9.56693,0 0,3.1181 z"
     style="fill:#000000;fill-opacity:1;fill-rule:nonzero;stroke:none"
     inkscape:connector-curvature="0" />
  <path
     id="path3590"
     d="m 947.46956,954.5132 3.11811,-0.3898 c 0.35433,1.7362 0.95669,3.0118 1.80708,3.7914 0.88583,0.7795 1.91339,1.1693 3.15355,1.1693 1.45275,0 2.69291,-0.4961 3.72046,-1.5237 0.99214,-0.9921 1.52364,-2.2677 1.52364,-3.7559 0,-1.4527 -0.4961,-2.622 -1.41734,-3.5433 -0.92125,-0.9212 -2.12598,-1.3819 -3.57873,-1.3819 -0.56693,0 -1.31103,0.1063 -2.19685,0.3189 l 0.35433,-2.7283 c 0.2126,0.035 0.38976,0.035 0.49606,0.035 1.34646,0 2.51575,-0.3544 3.57874,-1.0276 1.06299,-0.7087 1.59448,-1.7717 1.59448,-3.189 0,-1.1693 -0.38976,-2.0905 -1.13385,-2.8346 -0.77953,-0.7795 -1.77165,-1.1339 -3.01181,-1.1339 -1.20472,0 -2.23228,0.3898 -3.01181,1.1339 -0.81496,0.7441 -1.34646,1.9134 -1.55906,3.437 l -3.11811,-0.5669 c 0.38977,-2.0906 1.24016,-3.7205 2.58662,-4.8544 1.34645,-1.1338 3.04724,-1.7008 5.03149,-1.7008 1.38189,0 2.65748,0.2835 3.82677,0.8859 1.16927,0.5669 2.05517,1.3819 2.69287,2.4094 0.6024,1.0276 0.9213,2.126 0.9213,3.2953 0,1.063 -0.3189,2.0905 -0.8858,2.9764 -0.6024,0.8858 -1.4528,1.6299 -2.62207,2.1614 1.48817,0.3189 2.65747,1.063 3.50787,2.126 0.815,1.0984 1.2402,2.4803 1.2402,4.1102 0,2.1969 -0.815,4.0748 -2.4449,5.6339 -1.5945,1.5236 -3.64962,2.3031 -6.0945,2.3031 -2.23229,0 -4.07481,-0.6732 -5.563,-1.9842 -1.45275,-1.3465 -2.30315,-3.0473 -2.51574,-5.1733 z"
     style="fill:#000000;fill-opacity:1;fill-rule:nonzero;stroke:none"
     inkscape:connector-curvature="0" />
  <path
     id="path3592"
     d="m 968.942,961.21 0,-3.5433 3.5433,0 0,3.5433 z"
     style="fill:#000000;fill-opacity:1;fill-rule:nonzero;stroke:none"
     inkscape:connector-curvature="0" />
  <path
     id="path3594"
     d="m 977.0207,948.7022 c 0,-2.9764 0.2835,-5.4213 0.9213,-7.2284 0.6023,-1.8425 1.5236,-3.2244 2.7283,-4.2165 1.2402,-0.9922 2.7638,-1.4882 4.6063,-1.4882 1.3465,0 2.5512,0.248 3.5788,0.815 1.0275,0.5314 1.8779,1.311 2.5512,2.374 0.6732,1.0275 1.1693,2.2677 1.559,3.7559 0.3898,1.4882 0.5669,3.4724 0.5669,5.9882 0,2.9763 -0.2834,5.3858 -0.9212,7.2283 -0.6024,1.8071 -1.5236,3.2244 -2.7284,4.2165 -1.2047,0.9922 -2.7637,1.4882 -4.6063,1.4882 -2.4448,0 -4.3582,-0.8504 -5.7756,-2.622 -1.6653,-2.0906 -2.4803,-5.5276 -2.4803,-10.311 z m 3.189,0 c 0,4.1811 0.4961,6.9448 1.4528,8.3267 0.9921,1.3819 2.1968,2.0552 3.6141,2.0552 1.4174,0 2.6221,-0.6733 3.6142,-2.0552 0.9567,-1.3819 1.4528,-4.1811 1.4528,-8.3267 0,-4.1811 -0.4961,-6.9449 -1.4528,-8.3268 -0.9921,-1.3465 -2.1968,-2.0551 -3.6496,-2.0551 -1.4173,0 -2.5866,0.6023 -3.437,1.8425 -1.063,1.5236 -1.5945,4.3937 -1.5945,8.5394 z"
     style="fill:#000000;fill-opacity:1;fill-rule:nonzero;stroke:none"
     inkscape:connector-curvature="0" />
  <path
     id="path3596"
     d="m 996.7215,948.7022 c 0,-2.9764 0.3189,-5.4213 0.9213,-7.2284 0.6378,-1.8425 1.559,-3.2244 2.7638,-4.2165 1.2047,-0.9922 2.7283,-1.4882 4.6063,-1.4882 1.3464,0 2.5511,0.248 3.5787,0.815 1.0276,0.5314 1.8779,1.311 2.5157,2.374 0.6733,1.0275 1.2048,2.2677 1.5945,3.7559 0.3898,1.4882 0.567,3.4724 0.567,5.9882 0,2.9763 -0.3189,5.3858 -0.9213,7.2283 -0.6024,1.8071 -1.5236,3.2244 -2.7283,4.2165 -1.2402,0.9922 -2.7638,1.4882 -4.6063,1.4882 -2.4449,0 -4.3937,-0.8504 -5.7756,-2.622 -1.6654,-2.0906 -2.5158,-5.5276 -2.5158,-10.311 z m 3.2244,0 c 0,4.1811 0.4607,6.9448 1.4528,8.3267 0.9567,1.3819 2.1614,2.0552 3.6142,2.0552 1.4173,0 2.622,-0.6733 3.5787,-2.0552 0.9921,-1.3819 1.4882,-4.1811 1.4882,-8.3267 0,-4.1811 -0.4961,-6.9449 -1.4882,-8.3268 -0.9567,-1.3465 -2.1614,-2.0551 -3.6142,-2.0551 -1.4527,0 -2.5866,0.6023 -3.437,1.8425 -1.063,1.5236 -1.5945,4.3937 -1.5945,8.5394 z"
     style="fill:#000000;fill-opacity:1;fill-rule:nonzero;stroke:none"
     inkscape:connector-curvature="0" />
  <path
     id="path3598"
     d="m 1010.2569,361.22185 0,-28.62992 9.8504,0 c 2.2323,0 3.9331,0.14173 5.1024,0.38976 1.6299,0.38976 3.0472,1.06299 4.1811,2.05512 1.5236,1.27559 2.6575,2.90551 3.4016,4.88976 0.7441,1.98425 1.1338,4.25197 1.1338,6.80315 0,2.19685 -0.248,4.11024 -0.7795,5.81102 -0.4961,1.66536 -1.1338,3.04725 -1.9488,4.14567 -0.7795,1.09843 -1.6654,1.98426 -2.5866,2.62205 -0.9567,0.60236 -2.0906,1.09843 -3.437,1.41732 -1.3465,0.3189 -2.8701,0.49607 -4.6063,0.49607 z m 3.7914,-3.36615 6.0945,0 c 1.8779,0 3.3661,-0.17716 4.4645,-0.53149 1.063,-0.35433 1.9134,-0.85039 2.5512,-1.48819 0.8858,-0.92126 1.5945,-2.12598 2.0906,-3.61417 0.496,-1.52363 0.7441,-3.36615 0.7441,-5.52756 0,-3.01181 -0.4607,-5.31496 -1.4528,-6.90945 -0.9921,-1.59449 -2.1968,-2.69291 -3.5787,-3.22441 -1.0276,-0.38976 -2.6575,-0.60236 -4.9252,-0.60236 l -5.9882,0 z"
     style="fill:#000000;fill-opacity:1;fill-rule:nonzero;stroke:none"
     inkscape:connector-curvature="0" />
  <path
     id="path3600"
     d="m 1038.7097,336.6313 0,-4.03937 3.5433,0 0,4.03937 z m 0,24.59055 0,-20.72835 3.5433,0 0,20.72835 z"
     style="fill:#000000;fill-opacity:1;fill-rule:nonzero;stroke:none"
     inkscape:connector-curvature="0" />
  <path
     id="path3602"
     d="m 1061.1388,358.67067 c -1.311,1.09842 -2.5511,1.87795 -3.7559,2.33858 -1.2047,0.46063 -2.4803,0.67323 -3.8622,0.67323 -2.3031,0 -4.0393,-0.56693 -5.2795,-1.66536 -1.2047,-1.09842 -1.8425,-2.55118 -1.8425,-4.25197 0,-1.02756 0.248,-1.94882 0.7086,-2.79921 0.4607,-0.85039 1.063,-1.52362 1.8071,-2.01968 0.7441,-0.49607 1.5945,-0.88583 2.5512,-1.1693 0.6732,-0.17716 1.7362,-0.35433 3.1181,-0.49606 2.8347,-0.35433 4.9252,-0.74409 6.2717,-1.24016 0,-0.46063 0,-0.77952 0,-0.88582 0,-1.45276 -0.3189,-2.44488 -0.9922,-3.04725 -0.8858,-0.77952 -2.2322,-1.20472 -4.0039,-1.20472 -1.6299,0 -2.8701,0.3189 -3.6496,0.88583 -0.7795,0.56692 -1.3819,1.59448 -1.7362,3.08267 l -3.437,-0.46063 c 0.2835,-1.48819 0.8149,-2.65748 1.5236,-3.57874 0.7087,-0.92126 1.7717,-1.59449 3.1181,-2.09055 1.3465,-0.49606 2.9055,-0.74409 4.7126,-0.74409 1.7717,0 3.189,0.2126 4.2874,0.63779 1.1339,0.4252 1.9488,0.9567 2.4449,1.55906 0.5315,0.63779 0.8858,1.45275 1.0984,2.40945 0.1417,0.60236 0.1772,1.66535 0.1772,3.22441 l 0,4.71259 c 0,3.25985 0.071,5.31496 0.248,6.20079 0.1417,0.8504 0.4252,1.70079 0.8858,2.48032 l -3.685,0 c -0.3543,-0.7441 -0.6024,-1.59449 -0.7087,-2.55118 z m -0.2834,-7.86615 c -1.2756,0.5315 -3.189,0.9567 -5.7402,1.34646 -1.4527,0.2126 -2.4803,0.4252 -3.0827,0.67323 -0.6023,0.28346 -1.063,0.67323 -1.3819,1.16929 -0.3188,0.49606 -0.496,1.06299 -0.496,1.66535 0,0.92126 0.3543,1.70079 1.063,2.33859 0.7086,0.63779 1.7716,0.92126 3.1181,0.92126 1.3819,0 2.5866,-0.28347 3.6142,-0.88583 1.063,-0.56693 1.8425,-1.38189 2.3385,-2.40945 0.3898,-0.81496 0.567,-1.98425 0.567,-3.50787 z"
     style="fill:#000000;fill-opacity:1;fill-rule:nonzero;stroke:none"
     inkscape:connector-curvature="0" />
  <path
     id="path3604"
     d="m 1069.8908,361.22185 0,-20.72835 3.1181,0 0,2.90551 c 0.6732,-1.02756 1.5236,-1.84252 2.6221,-2.48031 1.063,-0.60237 2.3031,-0.92126 3.685,-0.92126 1.5236,0 2.7992,0.31889 3.7559,0.95669 0.9921,0.6378 1.7008,1.55906 2.0906,2.69291 1.6299,-2.44488 3.7913,-3.6496 6.4134,-3.6496 2.0551,0 3.6496,0.56693 4.748,1.73622 1.0984,1.13386 1.6653,2.87008 1.6653,5.24409 l 0,14.2441 -3.5078,0 0,-13.07481 c 0,-1.41732 -0.1063,-2.40945 -0.3544,-3.04724 -0.2126,-0.60236 -0.6378,-1.09843 -1.2401,-1.48819 -0.6024,-0.35433 -1.2756,-0.56693 -2.0906,-0.56693 -1.4527,0 -2.6575,0.49606 -3.6496,1.45276 -0.9567,0.99212 -1.4173,2.55118 -1.4173,4.67716 l 0,12.04725 -3.5433,0 0,-13.46457 c 0,-1.55906 -0.2835,-2.76378 -0.8504,-3.54331 -0.5669,-0.77952 -1.5236,-1.16929 -2.7992,-1.16929 -0.9921,0 -1.9134,0.28347 -2.7638,0.77953 -0.815,0.53149 -1.4527,1.31102 -1.8071,2.30315 -0.3897,0.99212 -0.5669,2.44488 -0.5669,4.32283 l 0,10.77166 z"
     style="fill:#000000;fill-opacity:1;fill-rule:nonzero;stroke:none"
     inkscape:connector-curvature="0" />
  <path
     id="path3606"
     d="m 1117.442,354.525 3.6142,0.46063 c -0.567,2.12598 -1.6299,3.7559 -3.189,4.96063 -1.5236,1.16929 -3.5079,1.73622 -5.9173,1.73622 -3.0473,0 -5.4567,-0.92126 -7.2284,-2.79922 -1.7716,-1.87795 -2.6575,-4.5 -2.6575,-7.86614 0,-3.47244 0.8859,-6.20079 2.693,-8.11417 1.807,-1.91339 4.1102,-2.90551 6.9803,-2.90551 2.7992,0 5.0669,0.95669 6.8031,2.83464 1.7717,1.91339 2.6575,4.53544 2.6575,7.97244 0,0.2126 -0.035,0.5315 -0.035,0.9567 l -15.4843,0 c 0.1418,2.26771 0.7796,4.00393 1.9489,5.20866 1.1692,1.20472 2.622,1.84252 4.3228,1.84252 1.311,0 2.4095,-0.35433 3.3307,-1.02756 0.8858,-0.67323 1.6299,-1.77165 2.1614,-3.25984 z m -11.5512,-5.6693 11.5866,0 c -0.1771,-1.73622 -0.6023,-3.04724 -1.3464,-3.93307 -1.0985,-1.34645 -2.5512,-2.01968 -4.3583,-2.01968 -1.5945,0 -2.9409,0.5315 -4.0748,1.62992 -1.0984,1.06299 -1.7008,2.51575 -1.8071,4.32283 z"
     style="fill:#000000;fill-opacity:1;fill-rule:nonzero;stroke:none"
     inkscape:connector-curvature="0" />
  <path
     id="path3608"
     d="m 1133.1743,358.0683 0.496,3.11811 c -0.9921,0.2126 -1.8779,0.3189 -2.6574,0.3189 -1.2756,0 -2.2678,-0.2126 -2.941,-0.60236 -0.7086,-0.4252 -1.2047,-0.95669 -1.4882,-1.59449 -0.2834,-0.67323 -0.4252,-2.05512 -0.4252,-4.14567 l 0,-11.94094 -2.5866,0 0,-2.72835 2.5866,0 0,-5.13779 3.4725,-2.12599 0,7.26378 3.5433,0 0,2.72835 -3.5433,0 0,12.11811 c 0,0.99212 0.071,1.66535 0.1771,1.94882 0.1418,0.28346 0.3544,0.49606 0.6378,0.67322 0.2481,0.17717 0.6733,0.24804 1.1693,0.24804 0.3898,0 0.9213,-0.0354 1.5591,-0.14174 z"
     style="fill:#000000;fill-opacity:1;fill-rule:nonzero;stroke:none"
     inkscape:connector-curvature="0" />
  <path
     id="path3610"
     d="m 1136.5404,361.22185 0,-20.72835 3.189,0 0,3.11811 c 0.7795,-1.45276 1.5236,-2.44488 2.2323,-2.90551 0.6732,-0.46063 1.4173,-0.70866 2.2323,-0.70866 1.2047,0 2.4094,0.38976 3.6141,1.13386 l -1.2047,3.25984 c -0.8504,-0.49606 -1.7008,-0.7441 -2.5866,-0.7441 -0.7441,0 -1.4528,0.2126 -2.0551,0.67323 -0.6024,0.46063 -1.063,1.13386 -1.3111,1.94882 -0.3897,1.24016 -0.5669,2.62205 -0.5669,4.0748 l 0,10.87796 z"
     style="fill:#000000;fill-opacity:1;fill-rule:nonzero;stroke:none"
     inkscape:connector-curvature="0" />
  <path
     id="path3612"
     d="m 1164.1428,354.525 3.6496,0.46063 c -0.5669,2.12598 -1.6299,3.7559 -3.189,4.96063 -1.559,1.16929 -3.5433,1.73622 -5.9527,1.73622 -3.0119,0 -5.4213,-0.92126 -7.193,-2.79922 -1.807,-1.87795 -2.6929,-4.5 -2.6929,-7.86614 0,-3.47244 0.9213,-6.20079 2.6929,-8.11417 1.8071,-1.91339 4.1457,-2.90551 7.0158,-2.90551 2.7638,0 5.0315,0.95669 6.8031,2.83464 1.7363,1.91339 2.6221,4.53544 2.6221,7.97244 0,0.2126 0,0.5315 0,0.9567 l -15.4843,0 c 0.1418,2.26771 0.7796,4.00393 1.9489,5.20866 1.1338,1.20472 2.5866,1.84252 4.3228,1.84252 1.2756,0 2.374,-0.35433 3.2953,-1.02756 0.9212,-0.67323 1.6299,-1.77165 2.1614,-3.25984 z m -11.5512,-5.6693 11.5866,0 c -0.1417,-1.73622 -0.6023,-3.04724 -1.311,-3.93307 -1.1339,-1.34645 -2.5866,-2.01968 -4.3583,-2.01968 -1.6299,0 -2.9764,0.5315 -4.0748,1.62992 -1.0984,1.06299 -1.7008,2.51575 -1.8425,4.32283 z"
     style="fill:#000000;fill-opacity:1;fill-rule:nonzero;stroke:none"
     inkscape:connector-curvature="0" />
  <path
     id="path3614"
     d="m 1200.568,339.60767 -3.4725,0.24803 c -0.3189,-1.34645 -0.7795,-2.37401 -1.3464,-2.97637 -0.9567,-1.02756 -2.126,-1.52362 -3.5079,-1.52362 -1.1338,0 -2.0905,0.31889 -2.9409,0.95669 -1.1339,0.77953 -1.9843,1.98425 -2.6221,3.50787 -0.6378,1.55906 -0.9921,3.75591 -0.9921,6.62599 0.8504,-1.27559 1.8779,-2.23229 3.0827,-2.87008 1.2401,-0.60236 2.5157,-0.92126 3.8622,-0.92126 2.3386,0 4.3228,0.85039 5.9882,2.58661 1.6299,1.70079 2.4803,3.93307 2.4803,6.69685 0,1.77166 -0.3898,3.43701 -1.1693,4.99607 -0.7796,1.52362 -1.8425,2.72834 -3.189,3.5433 -1.3819,0.81496 -2.9055,1.24016 -4.6063,1.24016 -2.9409,0 -5.3504,-1.09843 -7.1929,-3.25984 -1.8425,-2.12599 -2.7638,-5.70473 -2.7638,-10.62992 0,-5.52756 1.0276,-9.56693 3.0827,-12.08268 1.7716,-2.19685 4.1811,-3.25984 7.1929,-3.25984 2.2677,0 4.1102,0.60236 5.5276,1.87795 1.4527,1.27559 2.3031,3.01181 2.5866,5.24409 z m -14.3504,12.33071 c 0,1.20473 0.248,2.37402 0.7795,3.47244 0.4961,1.09843 1.2402,1.94882 2.1614,2.55118 0.9213,0.56693 1.878,0.8504 2.9055,0.8504 1.4882,0 2.7638,-0.60236 3.8268,-1.80709 1.063,-1.16929 1.5945,-2.79921 1.5945,-4.85433 0,-1.98425 -0.5315,-3.54331 -1.5945,-4.67716 -1.0275,-1.1693 -2.374,-1.73623 -3.9685,-1.73623 -1.5945,0 -2.9409,0.56693 -4.0394,1.73623 -1.0984,1.13385 -1.6653,2.62204 -1.6653,4.46456 z"
     style="fill:#000000;fill-opacity:1;fill-rule:nonzero;stroke:none"
     inkscape:connector-curvature="0" />
  <path
     id="path3616"
     d="m 1204.6074,353.71004 3.685,-0.3189 c 0.2835,1.80708 0.9212,3.15354 1.9134,4.0748 0.9921,0.88583 2.1968,1.34646 3.5787,1.34646 1.7008,0 3.1536,-0.6378 4.3229,-1.91339 1.1692,-1.27559 1.7362,-2.97638 1.7362,-5.06693 0,-2.01968 -0.567,-3.57874 -1.6654,-4.74803 -1.1338,-1.16929 -2.622,-1.73622 -4.4291,-1.73622 -1.1339,0 -2.1614,0.24803 -3.0827,0.77953 -0.9213,0.49606 -1.6299,1.16929 -2.126,1.98425 l -3.3307,-0.4252 2.7992,-14.70472 14.2441,0 0,3.36614 -11.4449,0 -1.5236,7.68898 c 1.7008,-1.20473 3.5079,-1.80709 5.3858,-1.80709 2.5158,0 4.6063,0.88583 6.3426,2.58661 1.7007,1.73623 2.5866,3.96851 2.5866,6.69686 0,2.58661 -0.7796,4.81889 -2.2677,6.73228 -1.8426,2.30315 -4.3583,3.47244 -7.5473,3.47244 -2.5866,0 -4.7126,-0.74409 -6.3779,-2.19685 -1.63,-1.45276 -2.5867,-3.40158 -2.7992,-5.81102 z"
     style="fill:#000000;fill-opacity:1;fill-rule:nonzero;stroke:none"
     inkscape:connector-curvature="0" />
  <path
     id="path3618"
     d="m 1010.2569,441.22972 0,-28.62992 9.8504,0 c 2.2323,0 3.9331,0.1063 5.1024,0.38976 1.6299,0.38977 3.0472,1.06299 4.1811,2.05512 1.5236,1.27559 2.6575,2.90551 3.4016,4.88976 0.7441,1.98426 1.1338,4.25197 1.1338,6.80315 0,2.19685 -0.248,4.11024 -0.7795,5.77559 -0.4961,1.70079 -1.1338,3.08268 -1.9488,4.18111 -0.7795,1.09842 -1.6654,1.98425 -2.5866,2.58661 -0.9567,0.6378 -2.0906,1.13386 -3.437,1.45276 -1.3465,0.31889 -2.8701,0.49606 -4.6063,0.49606 z m 3.7914,-3.40157 6.0945,0 c 1.8779,0 3.3661,-0.17717 4.4645,-0.5315 1.063,-0.3189 1.9134,-0.81496 2.5512,-1.45276 0.8858,-0.92126 1.5945,-2.12598 2.0906,-3.6496 0.496,-1.48819 0.7441,-3.33071 0.7441,-5.49213 0,-3.01181 -0.4607,-5.31496 -1.4528,-6.90945 -0.9921,-1.62992 -2.1968,-2.69291 -3.5787,-3.22441 -1.0276,-0.38976 -2.6575,-0.60236 -4.9252,-0.60236 l -5.9882,0 z"
     style="fill:#000000;fill-opacity:1;fill-rule:nonzero;stroke:none"
     inkscape:connector-curvature="0" />
  <path
     id="path3620"
     d="m 1038.7097,416.63917 0,-4.03937 3.5433,0 0,4.03937 z m 0,24.59055 0,-20.76378 3.5433,0 0,20.76378 z"
     style="fill:#000000;fill-opacity:1;fill-rule:nonzero;stroke:none"
     inkscape:connector-curvature="0" />
  <path
     id="path3622"
     d="m 1061.1388,438.67854 c -1.311,1.09842 -2.5511,1.87795 -3.7559,2.33858 -1.2047,0.46063 -2.4803,0.67323 -3.8622,0.67323 -2.3031,0 -4.0393,-0.56693 -5.2795,-1.66535 -1.2047,-1.13386 -1.8425,-2.55119 -1.8425,-4.28741 0,-0.99212 0.248,-1.91338 0.7086,-2.76378 0.4607,-0.85039 1.063,-1.52362 1.8071,-2.01968 0.7441,-0.5315 1.5945,-0.88583 2.5512,-1.16929 0.6732,-0.17717 1.7362,-0.35433 3.1181,-0.5315 2.8347,-0.3189 4.9252,-0.74409 6.2717,-1.20472 0,-0.46063 0,-0.77953 0,-0.92126 0,-1.41732 -0.3189,-2.44488 -0.9922,-3.01181 -0.8858,-0.81496 -2.2322,-1.20473 -4.0039,-1.20473 -1.6299,0 -2.8701,0.28347 -3.6496,0.88583 -0.7795,0.56693 -1.3819,1.59449 -1.7362,3.08268 l -3.437,-0.49607 c 0.2835,-1.45275 0.8149,-2.65748 1.5236,-3.5433 0.7087,-0.92126 1.7717,-1.59449 3.1181,-2.09055 1.3465,-0.49607 2.9055,-0.7441 4.7126,-0.7441 1.7717,0 3.189,0.2126 4.2874,0.6378 1.1339,0.38976 1.9488,0.92126 2.4449,1.55905 0.5315,0.6378 0.8858,1.41732 1.0984,2.40945 0.1417,0.60236 0.1772,1.66535 0.1772,3.22441 l 0,4.67716 c 0,3.29528 0.071,5.3504 0.248,6.20079 0.1417,0.88583 0.4252,1.70079 0.8858,2.51575 l -3.685,0 c -0.3543,-0.74409 -0.6024,-1.59449 -0.7087,-2.55118 z m -0.2834,-7.86614 c -1.2756,0.53149 -3.189,0.95669 -5.7402,1.31102 -1.4527,0.2126 -2.4803,0.46063 -3.0827,0.70866 -0.6023,0.28347 -1.063,0.6378 -1.3819,1.13386 -0.3188,0.5315 -0.496,1.06299 -0.496,1.70079 0,0.92126 0.3543,1.70079 1.063,2.33858 0.7086,0.60236 1.7716,0.92126 3.1181,0.92126 1.3819,0 2.5866,-0.28346 3.6142,-0.88583 1.063,-0.60236 1.8425,-1.38189 2.3385,-2.40945 0.3898,-0.81496 0.567,-1.98425 0.567,-3.5433 z"
     style="fill:#000000;fill-opacity:1;fill-rule:nonzero;stroke:none"
     inkscape:connector-curvature="0" />
  <path
     id="path3624"
     d="m 1069.8908,441.22972 0,-20.76378 3.1181,0 0,2.90551 c 0.6732,-0.99212 1.5236,-1.80708 2.6221,-2.44488 1.063,-0.60236 2.3031,-0.92126 3.685,-0.92126 1.5236,0 2.7992,0.3189 3.7559,0.95669 0.9921,0.6378 1.7008,1.52363 2.0906,2.69292 1.6299,-2.44488 3.7913,-3.64961 6.4134,-3.64961 2.0551,0 3.6496,0.56693 4.748,1.70079 1.0984,1.13386 1.6653,2.90551 1.6653,5.27953 l 0,14.24409 -3.5078,0 0,-13.0748 c 0,-1.41733 -0.1063,-2.40945 -0.3544,-3.04725 -0.2126,-0.60236 -0.6378,-1.09842 -1.2401,-1.48819 -0.6024,-0.38976 -1.2756,-0.56693 -2.0906,-0.56693 -1.4527,0 -2.6575,0.49607 -3.6496,1.45276 -0.9567,0.99213 -1.4173,2.51575 -1.4173,4.67717 l 0,12.04724 -3.5433,0 0,-13.5 c 0,-1.55905 -0.2835,-2.72835 -0.8504,-3.50787 -0.5669,-0.77953 -1.5236,-1.1693 -2.7992,-1.1693 -0.9921,0 -1.9134,0.24804 -2.7638,0.77953 -0.815,0.5315 -1.4527,1.27559 -1.8071,2.30315 -0.3897,0.99213 -0.5669,2.44488 -0.5669,4.32284 l 0,10.77165 z"
     style="fill:#000000;fill-opacity:1;fill-rule:nonzero;stroke:none"
     inkscape:connector-curvature="0" />
  <path
     id="path3626"
     d="m 1117.442,434.53287 3.6142,0.46063 c -0.567,2.12598 -1.6299,3.75591 -3.189,4.9252 -1.5236,1.16929 -3.5079,1.77165 -5.9173,1.77165 -3.0473,0 -5.4567,-0.92126 -7.2284,-2.79921 -1.7716,-1.87796 -2.6575,-4.5 -2.6575,-7.86614 0,-3.50788 0.8859,-6.20079 2.693,-8.11418 1.807,-1.94882 4.1102,-2.90551 6.9803,-2.90551 2.7992,0 5.0669,0.95669 6.8031,2.83465 1.7717,1.87795 2.6575,4.53543 2.6575,7.97244 0,0.2126 -0.035,0.53149 -0.035,0.92126 l -15.4843,0 c 0.1418,2.30315 0.7796,4.03937 1.9489,5.24409 1.1692,1.20473 2.622,1.80709 4.3228,1.80709 1.311,0 2.4095,-0.3189 3.3307,-0.99213 0.8858,-0.67323 1.6299,-1.77165 2.1614,-3.25984 z m -11.5512,-5.66929 11.5866,0 c -0.1771,-1.73622 -0.6023,-3.04725 -1.3464,-3.93307 -1.0985,-1.34646 -2.5512,-2.01969 -4.3583,-2.01969 -1.5945,0 -2.9409,0.5315 -4.0748,1.59449 -1.0984,1.09843 -1.7008,2.55118 -1.8071,4.35827 z"
     style="fill:#000000;fill-opacity:1;fill-rule:nonzero;stroke:none"
     inkscape:connector-curvature="0" />
  <path
     id="path3628"
     d="m 1133.1743,438.07618 0.496,3.11811 c -0.9921,0.17716 -1.8779,0.28346 -2.6574,0.28346 -1.2756,0 -2.2678,-0.17716 -2.941,-0.60236 -0.7086,-0.38976 -1.2047,-0.92126 -1.4882,-1.59449 -0.2834,-0.63779 -0.4252,-2.01968 -0.4252,-4.14567 l 0,-11.94094 -2.5866,0 0,-2.72835 2.5866,0 0,-5.13779 3.4725,-2.09056 0,7.22835 3.5433,0 0,2.72835 -3.5433,0 0,12.15354 c 0,0.99213 0.071,1.62992 0.1771,1.91339 0.1418,0.28346 0.3544,0.53149 0.6378,0.70866 0.2481,0.14173 0.6733,0.24803 1.1693,0.24803 0.3898,0 0.9213,-0.0354 1.5591,-0.14173 z"
     style="fill:#000000;fill-opacity:1;fill-rule:nonzero;stroke:none"
     inkscape:connector-curvature="0" />
  <path
     id="path3630"
     d="m 1136.5404,441.22972 0,-20.76378 3.189,0 0,3.15354 c 0.7795,-1.45275 1.5236,-2.44488 2.2323,-2.90551 0.6732,-0.46063 1.4173,-0.70866 2.2323,-0.70866 1.2047,0 2.4094,0.38976 3.6141,1.13386 l -1.2047,3.25984 c -0.8504,-0.49606 -1.7008,-0.74409 -2.5866,-0.74409 -0.7441,0 -1.4528,0.2126 -2.0551,0.67323 -0.6024,0.46063 -1.063,1.09842 -1.3111,1.91338 -0.3897,1.27559 -0.5669,2.62205 -0.5669,4.11024 l 0,10.87795 z"
     style="fill:#000000;fill-opacity:1;fill-rule:nonzero;stroke:none"
     inkscape:connector-curvature="0" />
  <path
     id="path3632"
     d="m 1164.1428,434.53287 3.6496,0.46063 c -0.5669,2.12598 -1.6299,3.75591 -3.189,4.9252 -1.559,1.16929 -3.5433,1.77165 -5.9527,1.77165 -3.0119,0 -5.4213,-0.92126 -7.193,-2.79921 -1.807,-1.87796 -2.6929,-4.5 -2.6929,-7.86614 0,-3.50788 0.9213,-6.20079 2.6929,-8.11418 1.8071,-1.94882 4.1457,-2.90551 7.0158,-2.90551 2.7638,0 5.0315,0.95669 6.8031,2.83465 1.7363,1.87795 2.6221,4.53543 2.6221,7.97244 0,0.2126 0,0.53149 0,0.92126 l -15.4843,0 c 0.1418,2.30315 0.7796,4.03937 1.9489,5.24409 1.1338,1.20473 2.5866,1.80709 4.3228,1.80709 1.2756,0 2.374,-0.3189 3.2953,-0.99213 0.9212,-0.67323 1.6299,-1.77165 2.1614,-3.25984 z m -11.5512,-5.66929 11.5866,0 c -0.1417,-1.73622 -0.6023,-3.04725 -1.311,-3.93307 -1.1339,-1.34646 -2.5866,-2.01969 -4.3583,-2.01969 -1.6299,0 -2.9764,0.5315 -4.0748,1.59449 -1.0984,1.09843 -1.7008,2.55118 -1.8425,4.35827 z"
     style="fill:#000000;fill-opacity:1;fill-rule:nonzero;stroke:none"
     inkscape:connector-curvature="0" />
  <text
     sodipodi:linespacing="125%"
     id="text3880"
     y="440.26062"
     x="1182.906"
     style="font-size:40px;font-style:normal;font-weight:normal;line-height:125%;letter-spacing:0px;word-spacing:0px;fill:#000000;fill-opacity:1;stroke:none;font-family:Sans;-inkscape-font-specification:Sans"
     xml:space="preserve"><tspan
       y="440.26062"
       x="1182.906"
       id="tspan3882"
       sodipodi:role="line">80</tspan></text>
  <text
     sodipodi:linespacing="100%"
     id="text85-1-6-6"
     y="955.16919"
     x="24.000078"
     style="font-size:35.43307114px;font-style:normal;font-weight:normal;line-height:100%;text-anchor:start;font-family:Arial">sph -3.25</text>
  <text
     sodipodi:linespacing="100%"
     id="text2998-1-0"
     y="272.82135"
     x="14.657373"
     style="font-size:35.43307114px;font-style:normal;font-weight:normal;line-height:100%;text-anchor:start;font-family:Arial">sph + 2.75</text>
  <rect
     y="303.81693"
     x="546.94061"
     height="81.496063"
     width="81.496063"
     style="fill:#6688c4;fill-opacity:1"
     id="13-2-1-9" />
  <rect
     y="303.81693"
     x="635.52325"
     height="81.496063"
     width="81.496063"
     style="fill:#6688c4;fill-opacity:1"
     id="14-4-9-0" />
  <rect
     y="389.38312"
     x="547.0033"
     height="81.496063"
     width="81.496063"
     style="fill:#a96673;fill-opacity:1"
     id="rect79-5-5-4" />
  <rect
     y="389.38312"
     x="635.58594"
     height="81.496063"
     width="81.496063"
     style="fill:#a96673;fill-opacity:1"
     id="rect83-2-4-4" />
  <rect
     y="476.54065"
     x="458.2952"
     height="81.496063"
     width="81.496063"
     style="fill:#a96673;fill-opacity:1"
     id="rect73-1-3-4-8" />
  <rect
     y="476.54065"
     x="546.87781"
     height="81.496063"
     width="81.496063"
     style="fill:#a96673;fill-opacity:1"
     id="rect79-5-2-1-4" />
  <rect
     y="476.54065"
     x="635.46045"
     height="81.496063"
     width="81.496063"
     style="fill:#a96673;fill-opacity:1"
     id="rect83-2-2-1-9" />
  <rect
     y="562.86139"
     x="369.83804"
     height="81.496063"
     width="81.496063"
     style="fill:#a96673;fill-opacity:1"
     id="rect66-1-27-9-1" />
  <rect
     y="562.86139"
     x="458.42075"
     height="81.496063"
     width="81.496063"
     style="fill:#a96673;fill-opacity:1"
     id="rect73-1-9-3-3" />
  <rect
     y="562.86139"
     x="547.0033"
     height="81.496063"
     width="81.496063"
     style="fill:#a96673;fill-opacity:1"
     id="rect79-5-5-4-5" />
  <rect
     y="562.86139"
     x="635.58594"
     height="81.496063"
     width="81.496063"
     style="fill:#a96673;fill-opacity:1"
     id="rect83-2-4-4-9" />
  <rect
     y="650.01892"
     x="281.12979"
     height="81.496063"
     width="81.496063"
     style="fill:#a96673;fill-opacity:1"
     id="rect56-7-4-3-6-7" />
  <rect
     y="650.01892"
     x="369.71249"
     height="81.496063"
     width="81.496063"
     style="fill:#a96673;fill-opacity:1"
     id="rect66-1-2-3-1-6" />
  <rect
     y="650.01892"
     x="458.2952"
     height="81.496063"
     width="81.496063"
     style="fill:#a96673;fill-opacity:1"
     id="rect73-1-3-4-8-3" />
  <rect
     y="650.01892"
     x="546.87781"
     height="81.496063"
     width="81.496063"
     style="fill:#a96673;fill-opacity:1"
     id="rect79-5-2-1-4-6" />
  <rect
     y="650.01892"
     x="635.46045"
     height="81.496063"
     width="81.496063"
     style="fill:#a96673;fill-opacity:1"
     id="rect83-2-2-1-9-1" />
  <rect
     y="735.58514"
     x="192.60988"
     height="81.496063"
     width="81.496063"
     style="fill:#a96673;fill-opacity:1"
     id="rect44-1-1-2-6-0-7" />
  <rect
     y="735.58514"
     x="281.19254"
     height="81.496063"
     width="81.496063"
     style="fill:#a96673;fill-opacity:1"
     id="rect56-7-4-3-6-7-3" />
  <rect
     y="735.58514"
     x="369.77524"
     height="81.496063"
     width="81.496063"
     style="fill:#a96673;fill-opacity:1"
     id="rect66-1-2-3-1-6-7" />
  <rect
     y="735.58514"
     x="458.35794"
     height="81.496063"
     width="81.496063"
     style="fill:#a96673;fill-opacity:1"
     id="rect73-1-3-4-8-3-2" />
  <rect
     y="735.58514"
     x="546.94061"
     height="81.496063"
     width="81.496063"
     style="fill:#a96673;fill-opacity:1"
     id="rect79-5-2-1-4-6-6" />
  <rect
     y="735.58514"
     x="635.52325"
     height="81.496063"
     width="81.496063"
     style="fill:#a96673;fill-opacity:1"
     id="rect83-2-2-1-9-1-0" />
  <rect
     y="820.39673"
     x="104.02725"
     height="81.496063"
     width="81.496063"
     style="fill:#a96673;fill-opacity:1"
     id="rect33-5-6-1-0-4-9-6" />
  <rect
     y="820.39673"
     x="192.60983"
     height="81.496063"
     width="81.496063"
     style="fill:#a96673;fill-opacity:1"
     id="rect44-1-1-2-6-0-7-5" />
  <rect
     y="820.39673"
     x="281.19247"
     height="81.496063"
     width="81.496063"
     style="fill:#a96673;fill-opacity:1"
     id="rect56-7-4-3-6-7-3-7" />
  <rect
     y="820.39673"
     x="369.77518"
     height="81.496063"
     width="81.496063"
     style="fill:#a96673;fill-opacity:1"
     id="rect66-1-2-3-1-6-7-5" />
  <rect
     y="820.39673"
     x="458.35788"
     height="81.496063"
     width="81.496063"
     style="fill:#a96673;fill-opacity:1"
     id="rect73-1-3-4-8-3-2-4" />
  <rect
     y="820.39673"
     x="546.94061"
     height="81.496063"
     width="81.496063"
     style="fill:#a96673;fill-opacity:1"
     id="rect79-5-2-1-4-6-6-1" />
  <rect
     y="820.39673"
     x="635.52332"
     height="81.496063"
     width="81.496063"
     style="fill:#a96673;fill-opacity:1"
     id="rect83-2-2-1-9-1-0-2" />
  <text
     xml:space="preserve"
     style="font-size:40px;font-style:normal;font-weight:normal;line-height:125%;letter-spacing:0px;word-spacing:0px;fill:#000000;fill-opacity:1;stroke:none;font-family:Sans;-inkscape-font-specification:Sans"
     x="245.63834"
     y="873.5011"
     id="text3241-8-8"
     sodipodi:linespacing="125%"><tspan
       sodipodi:role="line"
       id="tspan3243-5-7"
       x="245.63834"
       y="873.5011">Diamètre 80</tspan></text>
  <flowRoot
     xml:space="preserve"
     id="flowRoot4184"
     style="font-size:40px;font-style:normal;font-weight:normal;line-height:125%;letter-spacing:0px;word-spacing:0px;fill:#000000;fill-opacity:1;stroke:none;font-family:Sans;-inkscape-font-specification:Sans"
     transform="translate(0,45)"><flowRegion
       id="flowRegion4186"><rect
         id="rect4188"
         width="1235.5509"
         height="798.00012"
         x="-287.20294"
         y="1308.0144" /></flowRegion><flowPara
       id="flowPara4190" /></flowRoot>  <text
     xml:space="preserve"
     style="font-size:40px;font-style:normal;font-weight:normal;line-height:125%;letter-spacing:0px;word-spacing:0px;fill:#000000;fill-opacity:1;stroke:none;font-family:Sans;-inkscape-font-specification:Sans"
     x="19.275366"
     y="49.99968"
     id="text4291"
     sodipodi:linespacing="125%"><tspan
       sodipodi:role="line"
       id="tspan4293"
       x="19.275366"
       y="49.99968">FORTIS 1.67 CLEAN 165.-</tspan></text>
  <text
     xml:space="preserve"
     style="font-size:40px;font-style:normal;font-weight:normal;line-height:125%;letter-spacing:0px;word-spacing:0px;fill:#000000;fill-opacity:1;stroke:none;font-family:Sans;-inkscape-font-specification:Sans"
     x="853.89868"
     y="49.99968"
     id="text4295"
     sodipodi:linespacing="125%"><tspan
       sodipodi:role="line"
       id="tspan4297"
       x="853.89868"
       y="49.99968">FORTIS 1.67 CLEAN 135.-</tspan></text>
</svg>
